<svg width="24" height="24" viewBox="0 0 24 24" fill="none" xmlns="http://www.w3.org/2000/svg">
<rect width="24" height="24" rx="2" fill="white"/>
<path d="M15.7725 6H9.22746C6.34554 6 4 8.33095 4 11.197C4 12.8201 4.75319 14.2712 5.92969 15.2253C7.34262 16.4777 10.6722 19 10.6722 19L10.6638 16.3931H15.7725C18.6545 16.3931 21 14.0612 21 11.197C21 8.33281 18.6545 6 15.7725 6ZM12.6065 13.3951C9.44613 13.3951 7.17348 12.0397 7.03144 11.9542L7.87621 10.5857L8.71257 9.21446C8.86208 9.30272 12.4365 11.3726 16.4014 9.18288L17.9676 11.9895C16.0594 13.043 14.2176 13.3951 12.6056 13.3951H12.6065Z" fill="#18181B"/>
</svg>
