<svg height="24" width="120" viewBox="0 0 724 100" fill="none" xmlns="http://www.w3.org/2000/svg">
<path d="M89.9677 0H39.9491C17.925 0 0 17.9178 0 39.9491C0 52.4252 5.75599 63.5801 14.747 70.9144C25.5449 80.541 50.9898 99.93 50.9898 99.93L50.9255 79.8912H89.9677C111.992 79.8912 129.917 61.9662 129.917 39.9491C129.917 17.9321 111.992 0 89.9677 0ZM65.7725 56.8458C41.6202 56.8458 24.2523 46.4264 23.1668 45.7694L29.6226 35.2501L36.0142 24.7093C37.1568 25.3878 64.4728 41.2989 94.7739 24.4665L106.743 46.0408C92.1601 54.1392 78.0844 56.8458 65.7654 56.8458H65.7725Z" fill="#ffffff"/>
<path d="M198.943 27.2616C198.67 24.5116 197.5 22.3752 195.432 20.8525C193.364 19.3297 190.557 18.5684 187.011 18.5684C184.602 18.5684 182.568 18.9093 180.909 19.5911C179.25 20.2502 177.977 21.1707 177.091 22.3525C176.227 23.5343 175.795 24.8752 175.795 26.3752C175.75 27.6252 176.011 28.7161 176.58 29.6479C177.17 30.5797 177.977 31.3866 179 32.0684C180.023 32.7275 181.205 33.307 182.545 33.807C183.886 34.2843 185.318 34.6934 186.841 35.0343L193.114 36.5343C196.159 37.2161 198.955 38.1252 201.5 39.2616C204.045 40.3979 206.25 41.7957 208.114 43.4547C209.977 45.1138 211.42 47.0684 212.443 49.3184C213.489 51.5684 214.023 54.1479 214.045 57.057C214.023 61.3297 212.932 65.0343 210.773 68.1707C208.636 71.2843 205.545 73.7047 201.5 75.432C197.477 77.1366 192.625 77.9888 186.943 77.9888C181.307 77.9888 176.398 77.1252 172.216 75.3979C168.057 73.6707 164.807 71.1138 162.466 67.7275C160.148 64.3184 158.932 60.1025 158.818 55.0797H173.102C173.261 57.4207 173.932 59.3752 175.114 60.9434C176.318 62.4888 177.92 63.6593 179.92 64.4547C181.943 65.2275 184.227 65.6138 186.773 65.6138C189.273 65.6138 191.443 65.2502 193.284 64.5229C195.148 63.7957 196.591 62.7843 197.614 61.4888C198.636 60.1934 199.148 58.7047 199.148 57.0229C199.148 55.4547 198.682 54.1366 197.75 53.0684C196.841 52.0002 195.5 51.0911 193.727 50.3411C191.977 49.5911 189.83 48.9093 187.284 48.2957L179.682 46.3866C173.795 44.9547 169.148 42.7161 165.739 39.6707C162.33 36.6252 160.636 32.5229 160.659 27.3638C160.636 23.1366 161.761 19.4434 164.034 16.2843C166.33 13.1252 169.477 10.6593 173.477 8.88656C177.477 7.11376 182.023 6.22746 187.114 6.22746C192.295 6.22746 196.818 7.11376 200.682 8.88656C204.568 10.6593 207.591 13.1252 209.75 16.2843C211.909 19.4434 213.023 23.1025 213.091 27.2616H198.943ZM223.702 77.0002V24.6366H238.224V77.0002H223.702ZM230.997 17.8866C228.838 17.8866 226.986 17.1707 225.44 15.7388C223.918 14.2843 223.156 12.5457 223.156 10.5229C223.156 8.52286 223.918 6.80696 225.44 5.37516C226.986 3.92066 228.838 3.19336 230.997 3.19336C233.156 3.19336 234.997 3.92066 236.52 5.37516C238.065 6.80696 238.838 8.52286 238.838 10.5229C238.838 12.5457 238.065 14.2843 236.52 15.7388C234.997 17.1707 233.156 17.8866 230.997 17.8866ZM277.71 24.6366V35.5457H246.176V24.6366H277.71ZM253.335 12.0911H267.858V60.9093C267.858 62.2502 268.063 63.2957 268.472 64.0457C268.881 64.7729 269.449 65.2843 270.176 65.5797C270.926 65.8752 271.79 66.0229 272.767 66.0229C273.449 66.0229 274.131 65.9661 274.812 65.8525C275.494 65.7161 276.017 65.6138 276.381 65.5457L278.665 76.3525C277.938 76.5797 276.915 76.8411 275.597 77.1366C274.278 77.4547 272.676 77.6479 270.79 77.7161C267.29 77.8525 264.222 77.3866 261.585 76.3184C258.972 75.2502 256.938 73.5911 255.483 71.3411C254.028 69.0911 253.313 66.2502 253.335 62.8184V12.0911ZM310.472 78.0229C305.085 78.0229 300.449 76.932 296.562 74.7502C292.699 72.5457 289.722 69.432 287.631 65.4093C285.54 61.3638 284.494 56.5797 284.494 51.057C284.494 45.6707 285.54 40.9434 287.631 36.8752C289.722 32.807 292.665 29.6366 296.46 27.3638C300.278 25.0911 304.756 23.9547 309.892 23.9547C313.347 23.9547 316.563 24.5116 319.54 25.6252C322.54 26.7161 325.153 28.3638 327.381 30.5684C329.631 32.7729 331.381 35.5457 332.631 38.8866C333.881 42.2047 334.506 46.0911 334.506 50.5457V54.5343H290.29V45.5343H320.835C320.835 43.4434 320.381 41.5911 319.472 39.9775C318.563 38.3638 317.301 37.1025 315.688 36.1934C314.097 35.2616 312.244 34.7957 310.131 34.7957C307.926 34.7957 305.972 35.307 304.267 36.3297C302.585 37.3297 301.267 38.682 300.312 40.3866C299.358 42.0684 298.869 43.9434 298.847 46.0116V54.5684C298.847 57.1593 299.324 59.3979 300.278 61.2843C301.256 63.1707 302.631 64.6252 304.403 65.6479C306.176 66.6707 308.278 67.182 310.71 67.182C312.324 67.182 313.801 66.9547 315.142 66.5002C316.483 66.0457 317.631 65.3638 318.585 64.4547C319.54 63.5457 320.267 62.432 320.767 61.1138L334.199 62.0002C333.517 65.2275 332.119 68.0457 330.006 70.4547C327.915 72.8411 325.21 74.7047 321.892 76.0457C318.597 77.3638 314.79 78.0229 310.472 78.0229ZM382.131 27.2616C381.858 24.5116 380.688 22.3752 378.619 20.8525C376.551 19.3297 373.744 18.5684 370.199 18.5684C367.79 18.5684 365.756 18.9093 364.097 19.5911C362.438 20.2502 361.165 21.1707 360.278 22.3525C359.415 23.5343 358.983 24.8752 358.983 26.3752C358.938 27.6252 359.199 28.7161 359.767 29.6479C360.358 30.5797 361.165 31.3866 362.188 32.0684C363.21 32.7275 364.392 33.307 365.733 33.807C367.074 34.2843 368.506 34.6934 370.028 35.0343L376.301 36.5343C379.347 37.2161 382.142 38.1252 384.688 39.2616C387.233 40.3979 389.438 41.7957 391.301 43.4547C393.165 45.1138 394.608 47.0684 395.631 49.3184C396.676 51.5684 397.21 54.1479 397.233 57.057C397.21 61.3297 396.119 65.0343 393.96 68.1707C391.824 71.2843 388.733 73.7047 384.688 75.432C380.665 77.1366 375.813 77.9888 370.131 77.9888C364.494 77.9888 359.585 77.1252 355.403 75.3979C351.244 73.6707 347.994 71.1138 345.653 67.7275C343.335 64.3184 342.119 60.1025 342.006 55.0797H356.29C356.449 57.4207 357.119 59.3752 358.301 60.9434C359.506 62.4888 361.108 63.6593 363.108 64.4547C365.131 65.2275 367.415 65.6138 369.96 65.6138C372.46 65.6138 374.631 65.2502 376.472 64.5229C378.335 63.7957 379.778 62.7843 380.801 61.4888C381.824 60.1934 382.335 58.7047 382.335 57.0229C382.335 55.4547 381.869 54.1366 380.938 53.0684C380.028 52.0002 378.688 51.0911 376.915 50.3411C375.165 49.5911 373.017 48.9093 370.472 48.2957L362.869 46.3866C356.983 44.9547 352.335 42.7161 348.926 39.6707C345.517 36.6252 343.824 32.5229 343.847 27.3638C343.824 23.1366 344.949 19.4434 347.222 16.2843C349.517 13.1252 352.665 10.6593 356.665 8.88656C360.665 7.11376 365.21 6.22746 370.301 6.22746C375.483 6.22746 380.006 7.11376 383.869 8.88656C387.756 10.6593 390.778 13.1252 392.938 16.2843C395.097 19.4434 396.21 23.1025 396.278 27.2616H382.131ZM406.889 96.6362V24.6366H421.207V33.432H421.855C422.491 32.0229 423.412 30.5911 424.616 29.1366C425.844 27.6593 427.435 26.432 429.389 25.4547C431.366 24.4547 433.821 23.9547 436.753 23.9547C440.571 23.9547 444.094 24.9547 447.321 26.9547C450.548 28.932 453.128 31.9207 455.06 35.9207C456.991 39.8979 457.957 44.8866 457.957 50.8866C457.957 56.7275 457.014 61.6593 455.128 65.682C453.264 69.682 450.719 72.7161 447.491 74.7843C444.287 76.8297 440.696 77.8525 436.719 77.8525C433.901 77.8525 431.503 77.3866 429.526 76.4547C427.571 75.5229 425.969 74.3525 424.719 72.9434C423.469 71.5116 422.514 70.0684 421.855 68.6138H421.412V96.6362H406.889ZM421.105 50.8184C421.105 53.932 421.537 56.6479 422.401 58.9661C423.264 61.2843 424.514 63.0911 426.151 64.3866C427.787 65.6593 429.776 66.2957 432.116 66.2957C434.48 66.2957 436.48 65.6479 438.116 64.3525C439.753 63.0343 440.991 61.2161 441.832 58.8979C442.696 56.557 443.128 53.8638 443.128 50.8184C443.128 47.7957 442.707 45.1366 441.866 42.8411C441.026 40.5457 439.787 38.7502 438.151 37.4547C436.514 36.1593 434.503 35.5116 432.116 35.5116C429.753 35.5116 427.753 36.1366 426.116 37.3866C424.503 38.6366 423.264 40.4093 422.401 42.7047C421.537 45.0002 421.105 47.7047 421.105 50.8184ZM491.503 78.0229C486.116 78.0229 481.48 76.932 477.594 74.7502C473.73 72.5457 470.753 69.432 468.662 65.4093C466.571 61.3638 465.526 56.5797 465.526 51.057C465.526 45.6707 466.571 40.9434 468.662 36.8752C470.753 32.807 473.696 29.6366 477.491 27.3638C481.31 25.0911 485.787 23.9547 490.923 23.9547C494.378 23.9547 497.594 24.5116 500.571 25.6252C503.571 26.7161 506.185 28.3638 508.412 30.5684C510.662 32.7729 512.412 35.5457 513.662 38.8866C514.912 42.2047 515.537 46.0911 515.537 50.5457V54.5343H471.321V45.5343H501.866C501.866 43.4434 501.412 41.5911 500.503 39.9775C499.594 38.3638 498.332 37.1025 496.719 36.1934C495.128 35.2616 493.276 34.7957 491.162 34.7957C488.957 34.7957 487.003 35.307 485.298 36.3297C483.616 37.3297 482.298 38.682 481.344 40.3866C480.389 42.0684 479.901 43.9434 479.878 46.0116V54.5684C479.878 57.1593 480.355 59.3979 481.31 61.2843C482.287 63.1707 483.662 64.6252 485.435 65.6479C487.207 66.6707 489.31 67.182 491.741 67.182C493.355 67.182 494.832 66.9547 496.173 66.5002C497.514 66.0457 498.662 65.3638 499.616 64.4547C500.571 63.5457 501.298 62.432 501.798 61.1138L515.23 62.0002C514.548 65.2275 513.151 68.0457 511.037 70.4547C508.946 72.8411 506.241 74.7047 502.923 76.0457C499.628 77.3638 495.821 78.0229 491.503 78.0229ZM539.946 77.9888C536.605 77.9888 533.628 77.4093 531.014 76.2502C528.401 75.0684 526.332 73.3297 524.81 71.0343C523.31 68.7161 522.56 65.8297 522.56 62.3752C522.56 59.4661 523.094 57.0229 524.162 55.0457C525.23 53.0684 526.685 51.4775 528.526 50.2729C530.366 49.0684 532.457 48.1593 534.798 47.5457C537.162 46.932 539.639 46.5002 542.23 46.2502C545.276 45.932 547.73 45.6366 549.594 45.3638C551.457 45.0684 552.81 44.6366 553.651 44.0684C554.491 43.5002 554.912 42.6593 554.912 41.5457V41.3411C554.912 39.182 554.23 37.5116 552.866 36.3297C551.526 35.1479 549.616 34.557 547.139 34.557C544.526 34.557 542.446 35.1366 540.901 36.2957C539.355 37.432 538.332 38.8638 537.832 40.5911L524.401 39.5002C525.082 36.3184 526.423 33.5684 528.423 31.2502C530.423 28.9093 533.003 27.1138 536.162 25.8638C539.344 24.5911 543.026 23.9547 547.207 23.9547C550.116 23.9547 552.901 24.2957 555.56 24.9775C558.241 25.6593 560.616 26.7161 562.685 28.1479C564.776 29.5797 566.423 31.4207 567.628 33.6707C568.832 35.8979 569.435 38.5684 569.435 41.682V77.0002H555.662V69.7388H555.253C554.412 71.3752 553.287 72.8184 551.878 74.0684C550.469 75.2957 548.776 76.2616 546.798 76.9661C544.821 77.6479 542.537 77.9888 539.946 77.9888ZM544.105 67.9661C546.241 67.9661 548.128 67.5457 549.764 66.7047C551.401 65.8411 552.685 64.682 553.616 63.2275C554.548 61.7729 555.014 60.1252 555.014 58.2843V52.7275C554.56 53.0229 553.935 53.2957 553.139 53.5457C552.366 53.7729 551.491 53.9888 550.514 54.1934C549.537 54.3752 548.56 54.5457 547.582 54.7047C546.605 54.8411 545.719 54.9661 544.923 55.0797C543.219 55.3297 541.73 55.7275 540.457 56.2729C539.185 56.8184 538.196 57.557 537.491 58.4888C536.787 59.3979 536.435 60.5343 536.435 61.8979C536.435 63.8752 537.151 65.3866 538.582 66.432C540.037 67.4547 541.878 67.9661 544.105 67.9661ZM593.861 61.932L593.895 44.5116H596.009L612.781 24.6366H629.452L606.918 50.9547H603.474L593.861 61.932ZM580.702 77.0002V7.18196H595.224V77.0002H580.702ZM613.429 77.0002L598.02 54.1934L607.702 43.932L630.44 77.0002H613.429ZM648.884 77.0002H633.065L657.168 7.18196H676.19L700.259 77.0002H684.44L666.952 23.1366H666.406L648.884 77.0002ZM647.895 49.557H685.259V61.0797H647.895V49.557ZM723.423 7.18196V77.0002H708.662V7.18196H723.423Z" fill="#ffffff"/>
</svg>
