<svg height="24" width="121" viewBox="-0.5 -8.91 592.02 117.75" fill="none" xmlns="http://www.w3.org/2000/svg"><g fill="#191221"><path fill-rule="evenodd" d="M14.74 70.92L16.92 72.89L19.40 75.20L22.65 78.30L26.14 81.66L29.74 85.18L33.97 89.34L43.41 98.74L43.75 99.03L44.03 99.22L44.37 99.42L44.68 99.57L45.05 99.71L45.38 99.80L45.77 99.88L46.11 99.92L46.40 99.93L46.80 99.92L47.09 99.88L47.43 99.82L47.81 99.72L48.09 99.62L48.40 99.49L48.75 99.30L49.04 99.11L49.35 98.87L49.57 98.68L49.81 98.43L50.00 98.20L50.22 97.88L50.40 97.59L50.57 97.24L50.73 96.82L50.85 96.40L50.91 96.06L50.95 95.62L50.94 85.79L50.98 85.20L51.05 84.76L51.11 84.48L51.19 84.19L51.33 83.77L51.45 83.50L51.64 83.10L51.78 82.85L52.02 82.48L52.39 82.01L52.58 81.79L52.90 81.48L53.12 81.29L53.47 81.02L53.72 80.86L54.10 80.63L54.36 80.50L54.77 80.33L55.19 80.18L55.76 80.04L56.34 79.95L56.78 79.92L89.93 79.89L91.55 79.86L92.45 79.81L94.01 79.69L95.61 79.49L97.19 79.24L98.75 78.92L100.34 78.52L101.85 78.08L103.34 77.59L104.80 77.03L105.52 76.74L106.86 76.14L108.33 75.41L109.01 75.05L110.28 74.33L111.66 73.47L112.30 73.05L113.49 72.21L114.78 71.23L115.38 70.74L116.48 69.80L117.67 68.70L118.21 68.16L119.22 67.12L120.30 65.91L121.22 64.79L121.75 64.12L122.21 63.50L123.04 62.32L123.93 60.95L124.68 59.70L125.09 58.95L125.81 57.58L126.14 56.88L126.74 55.54L127.36 54.01L127.85 52.62L128.12 51.79L128.35 51.04L128.73 49.60L129.09 48.05L129.40 46.36L129.61 44.89L129.70 44.09L129.84 42.38L129.91 40.71L129.91 39.89L129.88 38.37L129.78 36.71L129.61 35.01L129.40 33.54L129.26 32.72L128.92 31.08L128.57 29.66L128.33 28.82L128.11 28.07L127.64 26.66L127.06 25.12L126.49 23.77L126.13 22.98L125.48 21.67L125.07 20.91L124.35 19.64L123.91 18.91L123.12 17.69L122.63 16.98L121.77 15.81L121.25 15.14L120.27 13.95L119.31 12.87L118.72 12.25L117.64 11.17L116.57 10.18L115.93 9.62L114.81 8.69L114.14 8.17L112.90 7.26L111.70 6.45L110.97 5.99L109.65 5.20L108.97 4.82L107.67 4.15L106.90 3.77L105.48 3.14L104.11 2.59L103.30 2.29L101.89 1.82L101.06 1.57L99.62 1.18L98.72 0.97L97.28 0.67L96.49 0.53L94.81 0.29L93.98 0.20L92.49 0.08L90.76 0.01L39.98 0.00L39.06 0.01L37.46 0.08L35.81 0.21L35.01 0.30L33.54 0.51L31.94 0.81L30.34 1.17L28.81 1.58L28.06 1.81L26.66 2.27L25.11 2.86L23.76 3.43L22.97 3.79L21.59 4.48L20.30 5.17L19.56 5.60L18.25 6.42L17.05 7.23L16.35 7.73L15.13 8.66L14.01 9.59L13.37 10.15L12.25 11.19L11.16 12.28L10.18 13.34L9.61 13.98L8.64 15.16L7.70 16.39L6.87 17.57L6.39 18.29L5.58 19.60L4.82 20.94L4.14 22.24L3.77 23.01L3.17 24.35L2.84 25.15L2.29 26.61L1.82 28.02L1.56 28.86L1.18 30.29L0.97 31.19L0.65 32.72L0.41 34.21L0.29 35.13L0.13 36.71L0.03 38.24L0.00 39.19L0.00 40.43L0.04 41.82L0.13 43.20L0.26 44.57L0.44 45.93L0.66 47.22L0.85 48.15L1.14 49.47L1.49 50.77L1.87 52.05L2.30 53.31L2.74 54.50L3.10 55.37L3.63 56.58L4.20 57.76L4.81 58.93L5.45 60.07L6.13 61.19L6.85 62.29L7.60 63.36L8.39 64.40L9.20 65.42L10.05 66.41L10.93 67.37L11.84 68.31L12.79 69.21L13.76 70.08L14.74 70.92ZM36.01 31.43L36.30 30.97L36.51 30.71L36.74 30.47L36.98 30.24L37.23 30.03L37.51 29.84L37.79 29.67L38.09 29.53L38.40 29.40L38.71 29.30L39.04 29.22L39.36 29.17L39.69 29.14L40.02 29.13L40.35 29.15L40.68 29.20L41.01 29.26L41.54 29.43L43.44 30.27L45.00 30.91L46.57 31.50L48.17 32.05L49.51 32.46L51.13 32.91L52.49 33.25L54.14 33.61L55.79 33.92L57.46 34.18L59.13 34.38L60.80 34.54L62.48 34.64L64.17 34.69L65.57 34.70L67.25 34.65L68.65 34.58L69.77 34.49L71.17 34.35L72.28 34.21L73.67 34.01L74.78 33.82L75.88 33.61L77.25 33.31L78.61 32.98L79.97 32.61L81.31 32.21L82.91 31.68L84.23 31.21L85.54 30.70L86.83 30.15L88.25 29.51L88.77 29.32L89.31 29.20L89.86 29.14L90.41 29.15L90.96 29.22L91.49 29.36L91.90 29.53L92.30 29.73L92.67 29.96L93.02 30.24L93.34 30.54L93.69 30.97L93.93 31.34L99.86 41.93L100.01 42.22L100.14 42.52L100.25 42.83L100.35 43.26L100.40 43.58L100.44 44.02L100.43 44.35L100.40 44.68L100.33 45.11L100.21 45.53L100.10 45.84L99.91 46.24L99.75 46.52L99.50 46.88L99.28 47.13L98.98 47.44L98.73 47.66L98.37 47.91L97.89 48.18L96.25 48.95L94.52 49.71L92.66 50.47L90.53 51.27L88.64 51.91L86.47 52.59L84.55 53.13L82.30 53.70L80.07 54.18L78.10 54.56L76.24 54.86L74.33 55.12L72.72 55.31L70.84 55.47L68.91 55.60L67.29 55.67L65.36 55.70L63.48 55.68L61.86 55.63L59.93 55.53L58.05 55.38L56.44 55.21L54.52 54.97L52.66 54.69L51.06 54.41L49.21 54.04L47.66 53.69L46.14 53.31L44.64 52.91L42.84 52.38L41.34 51.91L39.87 51.41L38.37 50.86L36.93 50.30L35.53 49.73L34.11 49.11L32.65 48.44L31.81 48.03L31.53 47.85L31.27 47.66L30.86 47.29L30.50 46.88L30.19 46.43L29.98 46.04L29.78 45.53L29.67 45.11L29.58 44.57L29.56 44.02L29.60 43.48L29.72 42.94L29.85 42.52L29.98 42.22L30.13 41.93L36.01 31.43Z"/><path transform="translate(154.839 -14.990) scale(0.104927)" d="M231 882.0Q188 882.0 146.5 871.0Q105 860.0 69.5 839.5Q34 819.0 9 792.0L96 704.0Q120 730.0 153.0 744.5Q186 759.0 225 759.0Q252 759.0 266.5 751.0Q281 743.0 281 729.0Q281 711.0 263.5 701.5Q246 692.0 219.0 684.5Q192 677.0 162.0 668.0Q132 659.0 105.0 643.0Q78 627.0 61.0 598.5Q44 570.0 44 526.0Q44 479.0 68.0 444.5Q92 410.0 136.0 390.0Q180 370.0 239 370.0Q301 370.0 353.5 391.5Q406 413.0 439 455.0L352 543.0Q329 516.0 300.5 505.0Q272 494.0 245 494.0Q219 494.0 206.0 501.5Q193 509.0 193 523.0Q193 538.0 210.0 547.0Q227 556.0 254.0 563.0Q281 570.0 311.0 580.0Q341 590.0 368.0 607.0Q395 624.0 412.0 652.5Q429 681.0 429 727.0Q429 798.0 375.5 840.0Q322 882.0 231 882.0ZM482.0 870.0V384.0H635.0V870.0ZM559.0 317.0Q523.0 317.0 499.5 292.5Q476.0 268.0 476.0 233.0Q476.0 197.0 499.5 173.0Q523.0 149.0 559.0 149.0Q595.0 149.0 618.0 173.0Q641.0 197.0 641.0 233.0Q641.0 268.0 618.0 292.5Q595.0 317.0 559.0 317.0ZM782.0 870.0V183.0H935.0V870.0ZM672.0 514.0V384.0H1045.0V514.0ZM1312.0 881.0Q1233.0 881.0 1171.5 848.5Q1110.0 816.0 1075.0 758.0Q1040.0 700.0 1040.0 627.0Q1040.0 554.0 1074.5 496.5Q1109.0 439.0 1168.0 406.0Q1227.0 373.0 1301.0 373.0Q1373.0 373.0 1428.0 404.0Q1483.0 435.0 1514.5 490.0Q1546.0 545.0 1546.0 616.0Q1546.0 629.0 1544.5 643.5Q1543.0 658.0 1539.0 677.0L1120.0 678.0V573.0L1474.0 572.0L1408.0 616.0Q1407.0 574.0 1395.0 546.5Q1383.0 519.0 1359.5 504.5Q1336.0 490.0 1302.0 490.0Q1266.0 490.0 1239.5 506.5Q1213.0 523.0 1198.5 553.0Q1184.0 583.0 1184.0 626.0Q1184.0 669.0 1199.5 699.5Q1215.0 730.0 1243.5 746.5Q1272.0 763.0 1311.0 763.0Q1347.0 763.0 1376.0 750.5Q1405.0 738.0 1427.0 713.0L1511.0 797.0Q1475.0 839.0 1424.0 860.0Q1373.0 881.0 1312.0 881.0ZM1767.0 882.0Q1724.0 882.0 1682.5 871.0Q1641.0 860.0 1605.5 839.5Q1570.0 819.0 1545.0 792.0L1632.0 704.0Q1656.0 730.0 1689.0 744.5Q1722.0 759.0 1761.0 759.0Q1788.0 759.0 1802.5 751.0Q1817.0 743.0 1817.0 729.0Q1817.0 711.0 1799.5 701.5Q1782.0 692.0 1755.0 684.5Q1728.0 677.0 1698.0 668.0Q1668.0 659.0 1641.0 643.0Q1614.0 627.0 1597.0 598.5Q1580.0 570.0 1580.0 526.0Q1580.0 479.0 1604.0 444.5Q1628.0 410.0 1672.0 390.0Q1716.0 370.0 1775.0 370.0Q1837.0 370.0 1889.5 391.5Q1942.0 413.0 1975.0 455.0L1888.0 543.0Q1865.0 516.0 1836.5 505.0Q1808.0 494.0 1781.0 494.0Q1755.0 494.0 1742.0 501.5Q1729.0 509.0 1729.0 523.0Q1729.0 538.0 1746.0 547.0Q1763.0 556.0 1790.0 563.0Q1817.0 570.0 1847.0 580.0Q1877.0 590.0 1904.0 607.0Q1931.0 624.0 1948.0 652.5Q1965.0 681.0 1965.0 727.0Q1965.0 798.0 1911.5 840.0Q1858.0 882.0 1767.0 882.0ZM2298.0 880.0Q2249.0 880.0 2208.0 861.0Q2167.0 842.0 2141.0 808.5Q2115.0 775.0 2111.0 732.0V527.0Q2115.0 484.0 2141.0 449.0Q2167.0 414.0 2208.0 394.0Q2249.0 374.0 2298.0 374.0Q2367.0 374.0 2420.5 407.0Q2474.0 440.0 2504.5 497.0Q2535.0 554.0 2535.0 627.0Q2535.0 700.0 2504.5 757.0Q2474.0 814.0 2420.5 847.0Q2367.0 880.0 2298.0 880.0ZM2018.0 1075.0V384.0H2171.0V509.0L2146.0 627.0L2169.0 745.0V1075.0ZM2270.0 742.0Q2303.0 742.0 2327.5 727.0Q2352.0 712.0 2366.0 686.0Q2380.0 660.0 2380.0 627.0Q2380.0 593.0 2366.0 567.0Q2352.0 541.0 2327.5 526.5Q2303.0 512.0 2271.0 512.0Q2239.0 512.0 2214.5 526.5Q2190.0 541.0 2176.0 567.0Q2162.0 593.0 2162.0 627.0Q2162.0 660.0 2175.5 686.0Q2189.0 712.0 2214.0 727.0Q2239.0 742.0 2270.0 742.0ZM2823.0 881.0Q2744.0 881.0 2682.5 848.5Q2621.0 816.0 2586.0 758.0Q2551.0 700.0 2551.0 627.0Q2551.0 554.0 2585.5 496.5Q2620.0 439.0 2679.0 406.0Q2738.0 373.0 2812.0 373.0Q2884.0 373.0 2939.0 404.0Q2994.0 435.0 3025.5 490.0Q3057.0 545.0 3057.0 616.0Q3057.0 629.0 3055.5 643.5Q3054.0 658.0 3050.0 677.0L2631.0 678.0V573.0L2985.0 572.0L2919.0 616.0Q2918.0 574.0 2906.0 546.5Q2894.0 519.0 2870.5 504.5Q2847.0 490.0 2813.0 490.0Q2777.0 490.0 2750.5 506.5Q2724.0 523.0 2709.5 553.0Q2695.0 583.0 2695.0 626.0Q2695.0 669.0 2710.5 699.5Q2726.0 730.0 2754.5 746.5Q2783.0 763.0 2822.0 763.0Q2858.0 763.0 2887.0 750.5Q2916.0 738.0 2938.0 713.0L3022.0 797.0Q2986.0 839.0 2935.0 860.0Q2884.0 881.0 2823.0 881.0ZM3304.0 880.0Q3237.0 880.0 3184.5 847.0Q3132.0 814.0 3101.5 757.0Q3071.0 700.0 3071.0 627.0Q3071.0 554.0 3101.5 497.0Q3132.0 440.0 3184.5 407.0Q3237.0 374.0 3304.0 374.0Q3353.0 374.0 3392.5 393.0Q3432.0 412.0 3457.0 445.5Q3482.0 479.0 3485.0 522.0V732.0Q3482.0 775.0 3457.5 808.5Q3433.0 842.0 3393.0 861.0Q3353.0 880.0 3304.0 880.0ZM3335.0 742.0Q3384.0 742.0 3414.0 709.5Q3444.0 677.0 3444.0 627.0Q3444.0 593.0 3430.5 567.0Q3417.0 541.0 3392.5 526.5Q3368.0 512.0 3336.0 512.0Q3304.0 512.0 3279.5 526.5Q3255.0 541.0 3240.5 567.0Q3226.0 593.0 3226.0 627.0Q3226.0 660.0 3240.0 686.0Q3254.0 712.0 3279.0 727.0Q3304.0 742.0 3335.0 742.0ZM3438.0 870.0V739.0L3461.0 621.0L3438.0 503.0V384.0H3588.0V870.0ZM3977.0 870.0 3807.0 618.0 3976.0 384.0H4147.0L3943.0 647.0L3948.0 584.0L4157.0 870.0ZM3666.0 870.0V144.0H3819.0V870.0Z"/></g></svg>
